Coordinates
version=1
nRows=4
nColumns=138
inDegrees=yes

Units are S.I. units (second, meters, Newtons, ...)
If the header above contains a line with 'inDegrees', this indicates whether rotational values are in degrees (yes) or radians (no).

endheader
time	pelvis_tilt	pelvis_list	pelvis_rotation	pelvis_tx	pelvis_ty	pelvis_tz	L5_S1_FE	L5_S1_LB	L5_S1_AR	L4_L5_FE	L4_L5_LB	L4_L5_AR	T12_L1_FE	T12_L1_LB	T12_L1_AR	T11_T12_FE	T11_T12_LB	T11_T12_AR	T10_T11_FE	T10_T11_LB	T10_T11_AR	T9_T10_FE	T9_T10_LB	T9_T10_AR	T8_T9_FE	T8_T9_LB	T8_T9_AR	T1_T2_FE	T1_T2_LB	T1_T2_AR	T1_head_neck_FE	T1_head_neck_LB	T1_head_neck_AR	hip_flexion_r	hip_adduction_r	hip_rotation_r	knee_angle_r	knee_angle_y_r	knee_angle_x_r	ankle_angle_r	subtalar_angle_r	mtp_angle_r	hip_flexion_l	hip_adduction_l	hip_rotation_l	knee_angle_l	knee_angle_y_l	knee_angle_x_l	ankle_angle_l	subtalar_angle_l	mtp_angle_l	skull_z	skull_y	skull_x	sternoclavicular_r2	sternoclavicular_r3	unrotscap_r3	unrotscap_r2	acromioclavicular_r2	acromioclavicular_r3	acromioclavicular_r1	unrothum_r1	unrothum_r3	unrothum_r2	elv_angle	shoulder_elv	shoulder1_r2	shoulder_rot	elbow_flexion	elbow_x	elbow_y	pro_sup	deviation	flexion	thumb_abd	thumb_flex	TCP2M_lateral	TCP2M_flex	TCP2M2_flex	MCP2_lateral	MCP2_flex	PIP_flex	DIP_flex	MCP2M_lateral	MCP2M_flex	MPIP_flex	MDIP_flex	RCP2M_lateral	RCP2M_flex	RPIP_flex	RDIP_flex	LCP2M_lateral	LCP2M_flex	LPIP_flex	LDIP_flex	sternoclavicular_r2_l	sternoclavicular_r3_l	unrotscap_r3_l	unrotscap_r2_l	acromioclavicular_r2_l	acromioclavicular_r3_l	acromioclavicular_r1_l	unrothum_r1_l	unrothum_r3_l	unrothum_r2_l	elv_angle_l	shoulder_elv_l	shoulder1_r2_l	shoulder_rot_l	elbow_flexion_l	elbow_x_l	elbow_y_l	pro_sup_l	deviation_l	flexion_l	thumb_l_abd	thumb_l_flex	TCP2M_l_lateral	TCP2M_l_flex	TCP2M2_l_flex	MCP2_l_lateral	MCP2_l_flex	PIP_l_flex	DIP_l_flex	MCP2M_l_lateral	MCP2M_l_flex	MPIP_l_flex	MDIP_l_flex	RCP2M_l_lateral	RCP2M_l_flex	RPIP_l_flex	RDIP_l_flex	LCP2M_l_lateral	LCP2M_l_flex	LPIP_l_flex	LDIP_l_flex	ribs_bending
      0.98330000	     -2.63162984	     86.09898261	    -86.52983147	      0.30576917	     -0.09719108	      0.82788984	    -11.40786362	     -1.73560577	     -1.02613374	      1.33350144	     -1.52253102	     -0.45614365	      1.64429718	     -0.28119927	      0.08758457	      0.92037080	     -0.00574661	      0.14687592	      0.75362857	      0.11084173	      0.03562560	      1.98200421	      0.25172895	      0.15139684	      1.48576874	      0.35115081	      0.11948170	      1.46074276	      0.87871427	      0.54399605	    -20.82623038	     -0.87035176	     -1.77498173	     24.10734808	    -15.41965982	     -2.46711887	    -55.97309849	      3.21129854	      1.04489625	     25.59531726	     -2.30144274	     -7.42794362	     23.32012996	    -17.87355092	     -1.48922658	    -57.60380748	      5.53167153	      3.93735425	     27.38231686	      0.70498964	     -7.51483265	      1.68389569	     -3.79045153	      2.56524696	    -30.67445616	      6.11324021	    -10.37524837	     24.49576134	      3.75670943	     40.08411370	     18.01753324	    -18.01753324	    -40.08411370	      4.95989339	      8.51402703	    101.22192743	     -8.51402703	    -39.35367911	     79.77336073	    -12.34781940	      0.00000000	     13.53361200	     -2.46530162	    -27.51608095	     -4.18636343	     12.67520169	     -0.43835669	    -14.15499584	      7.85046586	      4.40655637	     31.65579054	     28.26951274	      4.34291570	      3.53096114	     20.47069361	     44.06132230	      9.87399668	     12.47437711	     20.15508378	     50.36559853	     16.86590917	    -10.98895937	      3.51211662	     50.31826229	     15.81172828	    -32.85992061	      7.97756500	    -10.66755681	     25.18589595	      4.57466502	     41.21342884	     18.52515262	    -18.52515262	    -41.21342884	      5.09963161	      2.66765667	    104.07371694	    -33.16464160	    -13.75349425	     87.10418174	    -13.30672605	      0.00000000	     22.61119258	      1.45205956	    -26.57856017	     -4.69784958	      8.88757151	      0.37083222	    -11.30113096	     13.59115158	      6.32062687	     33.93876726	     29.05397029	     14.50549772	      6.51327588	     25.65096535	     37.81365148	     18.73087407	     19.58141083	     21.75819259	     54.87513629	     13.34756335	    -10.93629876	     -1.08470743	     57.06263320	     19.94799290	      2.31945405
      0.99170000	     -2.33091747	     85.86912645	    -86.84540665	      0.30520207	     -0.09679957	      0.82502837	    -11.18969843	     -1.81082105	     -1.03642369	      1.35863677	     -1.54881341	     -0.45658072	      1.25825752	     -0.25562459	      0.07162483	      0.65927762	      0.02084679	      0.13977167	      0.52107964	      0.12989602	      0.02485467	      1.99118756	      0.26887843	      0.17090809	      1.56912372	      0.35656649	      0.13510059	      1.66791747	      0.72997565	      0.53795831	    -20.48000269	     -0.69518028	     -1.73578041	     24.62092737	    -15.37191621	     -1.25645769	    -57.28354035	      3.35174390	      1.69145171	     25.87849062	     -2.77723665	     -7.51036618	     23.77291003	    -17.97521515	     -1.03186221	    -58.81414728	      5.65045120	      4.05677948	     27.56426597	      0.62535804	     -7.55901482	      1.38279337	     -3.94277628	      2.53277919	    -31.00082945	      6.13311080	    -10.40789253	     24.57283359	      4.26222293	     40.21023236	     18.07422271	    -18.07422271	    -40.21023236	      4.97549895	      8.54998936	    101.54040707	     -8.54998936	    -39.20714268	     79.41189011	    -12.48411906	      0.00000000	     13.70559385	     -2.20247219	    -27.78443057	     -4.19784877	     12.59257275	     -0.38784571	    -14.24864962	      7.77081755	      4.43725582	     31.73314850	     28.30574141	      4.29486593	      3.51492075	     20.62744521	     44.12114237	      9.75797689	     12.50305102	     20.35937383	     50.39962254	     16.66733062	    -11.05478003	      3.56599810	     50.57583426	     15.80908830	    -32.98164449	      8.20728886	    -10.71522908	     25.29844925	      5.39444167	     41.39760762	     18.60793972	    -18.60793972	    -41.39760762	      5.12242136	      2.00160196	    104.53881220	    -33.67315540	    -13.77806047	     87.30003167	    -13.18301657	      0.00000000	     23.24886259	      1.87676250	    -26.61245799	     -4.86766646	      8.71371953	      0.20676673	    -11.28672653	     13.55435892	      6.27677273	     33.79656162	     28.91803570	     14.32579113	      6.43561262	     25.70073531	     37.79695365	     18.43332343	     19.60853580	     21.82715150	     54.94994780	     13.17449490	    -11.10113395	     -0.97185293	     57.32221892	     19.96853700	      2.31945405
      1.00000000	     -2.29587899	     85.39863871	    -87.06006773	      0.30432481	     -0.09665794	      0.82309203	    -11.63703726	     -1.78084013	     -0.99409097	      1.32098928	     -1.53486716	     -0.41590639	      1.26052393	     -0.26870229	      0.09981918	      0.70460540	     -0.00096129	      0.15582555	      0.58925450	      0.10447949	      0.04185770	      1.94106349	      0.23622960	      0.18832836	      1.56261698	      0.32080235	      0.16012706	      1.61563003	      0.76184126	      0.54695720	    -20.50244960	     -0.58162093	     -1.94482583	     24.76482653	    -15.31476873	     -0.98944757	    -58.36556675	      3.17283312	      1.61062907	     26.24208751	     -2.36509165	     -7.47108762	     23.62418343	    -18.21108456	     -1.21478464	    -59.67096873	      5.70784230	      3.90058666	     27.94967453	      0.90979853	     -7.53993093	      1.38731285	     -3.86579080	      2.40803394	    -31.07773758	      6.14005402	    -10.43937726	     24.64716841	      4.27657189	     40.33187159	     18.12889871	    -18.12889871	    -40.33187159	      4.99055024	      8.87616745	    101.84757508	     -8.87616745	    -38.79950262	     79.04027087	    -12.31309297	      0.00000000	     13.64690385	     -2.17847479	    -27.97133316	     -4.24524298	     12.63494903	     -0.39719069	    -14.20708335	      7.77292209	      4.39282085	     31.74603505	     28.29052288	      4.25808307	      3.47979823	     20.60766725	     44.10765296	      9.69205759	     12.48063998	     20.33110011	     50.37162831	     16.56722680	    -11.09701688	      3.46828334	     50.60725648	     15.77190738	    -33.02040508	      8.20870183	    -10.75694506	     25.39693987	      5.43145848	     41.55877465	     18.68038319	    -18.68038319	    -41.55877465	      5.14236371	      1.97623902	    104.94579731	    -33.96538589	    -13.68715183	     87.43021563	    -12.84628660	      0.00000000	     23.75427231	      2.10175364	    -26.80473198	     -4.74946795	      8.84312263	      0.22187485	    -11.23868687	     13.55712634	      6.28014925	     33.88172728	     28.92537632	     14.27291556	      6.42228038	     25.65963165	     37.78855332	     18.31044356	     19.57993110	     21.70926552	     54.94244561	     13.08666057	    -11.15525528	     -1.17360492	     57.27193288	     19.92129129	      2.31945405
      1.00830000	     -1.86012431	     84.96942743	    -87.57744496	      0.30352530	     -0.09700925	      0.82158069	    -11.86946290	     -1.74683686	     -1.00817669	      1.38261983	     -1.47591625	     -0.44875919	      1.17556175	     -0.31244136	      0.08495276	      0.62249517	     -0.06576308	      0.15028125	      0.49135854	      0.00973286	      0.04731012	      1.90425733	      0.19867025	      0.20441343	      1.50168161	      0.31295460	      0.22043772	      1.67526490	      0.79880791	      0.66215033	    -20.53025291	     -0.59734369	     -2.06554445	     24.70277006	    -15.40416423	     -0.78026575	    -59.11513072	      3.28935951	      1.73853177	     26.66357566	     -2.35537404	     -7.47805257	     23.33940518	    -18.41339006	     -1.35857611	    -60.15772696	      5.88783275	      3.89775544	     28.32195339	      0.92046897	     -7.55440411	      1.45026393	     -3.89839145	      2.43991007	    -31.28704324	      6.21348524	    -10.47211340	     24.72445783	      4.47154267	     40.45834563	     18.18574792	    -18.18574792	    -40.45834563	      5.00619978	      9.19309695	    102.16695212	     -9.19309695	    -38.41263293	     78.41862976	    -12.27666006	      0.00000000	     13.67821418	     -2.09492360	    -28.17428837	     -4.24090988	     12.63287745	     -0.36808676	    -14.23566384	      7.73318208	      4.35843480	     31.77847388	     28.28478992	      4.21552882	      3.45932823	     20.64936054	     44.13715024	      9.62916437	     12.45112188	     20.37577582	     50.39368065	     16.45599318	    -11.14751402	      3.41038542	     50.70763469	     15.75037127	    -33.19798532	      8.29649271	    -10.79191724	     25.47950852	      5.68756245	     41.69388746	     18.74111546	    -18.74111546	    -41.69388746	      5.15908218	      1.86269373	    105.28698930	    -34.26308730	    -13.53091056	     87.37749206	    -12.77403913	      0.00000000	     24.33272326	      2.33811990	    -26.93643658	     -4.76446216	      8.81938885	      0.15842807	    -11.24606765	     13.51493384	      6.27602949	     33.89794066	     28.89178311	     14.18845737	      6.38684108	     25.68272625	     37.82003898	     18.16338485	     19.52623581	     21.70163904	     55.01534553	     12.99630429	    -11.23686628	     -1.24310567	     57.36676175	     19.92610477	      2.31945405
